<svg width="22" height="17" viewBox="0 0 22 17" fill="none" xmlns="http://www.w3.org/2000/svg">
<path d="M0 1C0 0.734784 0.105357 0.480429 0.292893 0.292892C0.48043 0.105356 0.734784 0 1 0H21C21.2652 0 21.5196 0.105356 21.7071 0.292892C21.8946 0.480429 22 0.734784 22 1C22 1.26522 21.8946 1.51957 21.7071 1.70711C21.5196 1.89464 21.2652 2 21 2H1C0.734784 2 0.48043 1.89464 0.292893 1.70711C0.105357 1.51957 0 1.26522 0 1ZM0 5C0 4.73478 0.105357 4.48043 0.292893 4.29289C0.48043 4.10536 0.734784 4 1 4H21C21.2652 4 21.5196 4.10536 21.7071 4.29289C21.8946 4.48043 22 4.73478 22 5C22 5.26522 21.8946 5.51957 21.7071 5.70711C21.5196 5.89464 21.2652 6 21 6H1C0.734784 6 0.48043 5.89464 0.292893 5.70711C0.105357 5.51957 0 5.26522 0 5ZM2 11H4V13H2V11ZM3 15H5V17H3V15ZM8 13H10V15H8V13ZM14 15H16V17H14V15ZM18 14H20V16H18V14Z" fill="#036FC7"/>
</svg>
