<svg width="24" height="20" viewBox="0 0 24 20" fill="none" xmlns="http://www.w3.org/2000/svg">
<path d="M2.015 0V13.203C0.918 13.836 0 15.03 0 16.363C0 18.362 1.664 20 3.692 20H14.77C16.798 20 18.462 18.361 18.462 16.364C18.4578 15.722 18.2791 15.0932 17.945 14.545L20.5 14.5V16.364C20.5 18.36 21.972 20 24 20V18.5C22.97 18.5 22 17.379 22 16.364V9H20.5V12.756L17.055 12.727L18.461 9.26V7.273H14.77V4.546C14.77 4.032 15.172 3.636 15.693 3.636V1.818C14.175 1.818 12.924 3.05 12.924 4.546V7.273H11.718L8.947 0H2.015ZM3.692 1.818H7.668L9.745 7.273H3.692V1.818ZM3.692 9.091H16.542L15 12.727H3.692V9.091ZM3.692 14.546H14.77C15.801 14.546 16.616 15.349 16.616 16.364C16.616 17.379 15.801 18.182 14.77 18.182H3.692C2.662 18.182 1.846 17.379 1.846 16.364C1.846 15.349 2.662 14.546 3.692 14.546ZM3.692 15.455C3.447 15.455 3.212 15.55 3.04 15.721C2.868 15.892 2.77 16.123 2.77 16.364C2.77 16.605 2.867 16.836 3.04 17.007C3.21398 17.1783 3.44834 17.2743 3.6925 17.2743C3.93666 17.2743 4.17102 17.1783 4.345 17.007C4.43032 16.9231 4.49809 16.823 4.54434 16.7126C4.5906 16.6022 4.61442 16.4837 4.61442 16.364C4.61442 16.2443 4.5906 16.1258 4.54434 16.0154C4.49809 15.905 4.43032 15.8049 4.345 15.721C4.17069 15.5501 3.93614 15.4545 3.692 15.455ZM7.385 15.455C7.14081 15.4543 6.90619 15.5499 6.732 15.721C6.6468 15.805 6.57914 15.9051 6.53296 16.0155C6.48678 16.1259 6.463 16.2443 6.463 16.364C6.463 16.4837 6.48678 16.6021 6.53296 16.7125C6.57914 16.8229 6.6468 16.923 6.732 17.007C6.90598 17.1783 7.14034 17.2743 7.3845 17.2743C7.62866 17.2743 7.86302 17.1783 8.037 17.007C8.12232 16.9231 8.19009 16.823 8.23634 16.7126C8.2826 16.6022 8.30642 16.4837 8.30642 16.364C8.30642 16.2443 8.2826 16.1258 8.23634 16.0154C8.19009 15.905 8.12232 15.8049 8.037 15.721C7.86293 15.5503 7.6288 15.4548 7.385 15.455ZM11.077 15.455C10.8328 15.4543 10.5982 15.5499 10.424 15.721C10.3388 15.805 10.2711 15.9051 10.225 16.0155C10.1788 16.1259 10.155 16.2443 10.155 16.364C10.155 16.4837 10.1788 16.6021 10.225 16.7125C10.2711 16.8229 10.3388 16.923 10.424 17.007C10.598 17.1786 10.8326 17.2748 11.077 17.2748C11.3214 17.2748 11.556 17.1786 11.73 17.007C11.8153 16.9231 11.8831 16.823 11.9293 16.7126C11.9756 16.6022 11.9994 16.4837 11.9994 16.364C11.9994 16.2443 11.9756 16.1258 11.9293 16.0154C11.8831 15.905 11.8153 15.8049 11.73 15.721C11.5557 15.5501 11.3211 15.4545 11.077 15.455ZM14.769 15.455C14.5248 15.4543 14.2902 15.5499 14.116 15.721C14.0308 15.805 13.9631 15.9051 13.917 16.0155C13.8708 16.1259 13.847 16.2443 13.847 16.364C13.847 16.4837 13.8708 16.6021 13.917 16.7125C13.9631 16.8229 14.0308 16.923 14.116 17.007C14.29 17.1786 14.5246 17.2748 14.769 17.2748C15.0134 17.2748 15.248 17.1786 15.422 17.007C15.5073 16.9231 15.5751 16.823 15.6213 16.7126C15.6676 16.6022 15.6914 16.4837 15.6914 16.364C15.6914 16.2443 15.6676 16.1258 15.6213 16.0154C15.5751 15.905 15.5073 15.8049 15.422 15.721C15.2477 15.5501 15.0131 15.4545 14.769 15.455Z" fill="#036FC7"/>
</svg>
