<svg width="24" height="18" viewBox="0 0 24 18" fill="none" xmlns="http://www.w3.org/2000/svg">
<path d="M15.923 4.00017C15.368 4.00017 15 4.36817 15 4.92317V14.5002C15 14.9622 15.368 15.4232 15.923 15.4232C16.107 13.8552 17.338 12.5002 19.001 12.5002C20.663 12.5002 21.817 13.8382 22.001 15.5002H23.001C23.556 15.5002 24.001 15.0942 24.001 14.5382V9.92317C24.001 9.09317 23.251 8.07717 23.251 8.07717L21.231 4.96217C20.769 4.40617 20.491 4.03817 19.846 4.03817L15.923 4.00017ZM17.001 6.00017H20.001L22.067 9.08717C22.251 9.36417 22.5 9.72217 22.5 10.0002H17L17.001 6.00017ZM4.00099 14.0002C2.82799 14.0002 2.00099 14.8282 2.00099 16.0002C2.00099 17.1722 2.82899 18.0002 4.00099 18.0002C5.17299 18.0002 6.00099 17.1722 6.00099 16.0002C6.00099 14.8282 5.17099 14.0002 4.00099 14.0002ZM19.001 14.0002C17.829 14.0002 17.001 14.8282 17.001 16.0002C17.001 17.1722 17.829 18.0002 19.001 18.0002C20.173 18.0002 21.001 17.1722 21.001 16.0002C21.001 14.8282 20.172 14.0002 19.001 14.0002ZM7.99999 16.0002C7.99999 14.8282 8.82799 14.0002 9.99999 14.0002C11.172 14.0002 12 14.8282 12 16.0002C12 17.1722 11.172 18.0002 9.99999 18.0002C8.82899 18.0002 7.99999 17.1722 7.99999 16.0002ZM1.55299 6.00017C1.20648 5.71924 0.963826 5.33053 0.863625 4.89584C0.763424 4.46115 0.811423 4.00544 0.99999 3.60117L2.11399 1.21117C2.30253 0.806976 2.62077 0.477401 3.01812 0.27483C3.41547 0.07226 3.86913 0.00831934 4.30699 0.0931708L8.36199 0.87917C8.5222 0.910057 8.67802 0.960431 8.82599 1.02917L12.519 2.75117C12.6904 2.83113 12.8443 2.94407 12.9721 3.08354C13.0998 3.22301 13.1988 3.38627 13.2634 3.56401C13.3281 3.74174 13.3571 3.93047 13.3487 4.11941C13.3404 4.30835 13.295 4.4938 13.215 4.66517L10.723 10.2052C10.643 10.3766 10.5301 10.5305 10.3906 10.6582C10.2511 10.786 10.0879 10.885 9.91015 10.9496C9.73242 11.0142 9.54369 11.0432 9.35475 11.0349C9.16581 11.0266 8.98036 10.9812 8.80899 10.9012L5.11699 9.17917C4.96858 9.11015 4.8292 9.02317 4.70199 8.92017L1.55299 6.00017Z" fill="#036FC7"/>
</svg>
