<svg width="24" height="20" viewBox="0 0 24 20" fill="none" xmlns="http://www.w3.org/2000/svg">
<path fill-rule="evenodd" clip-rule="evenodd" d="M0 0H2V7H9V0H11V8C11 8.26522 10.8946 8.51957 10.7071 8.70711C10.5196 8.89464 10.2652 9 10 9H1C0.734784 9 0.48043 8.89464 0.292893 8.70711C0.105357 8.51957 0 8.26522 0 8V0ZM13 0H15V7H22V0H24V8C24 8.26522 23.8946 8.51957 23.7071 8.70711C23.5196 8.89464 23.2652 9 23 9H14C13.7348 9 13.4804 8.89464 13.2929 8.70711C13.1054 8.51957 13 8.26522 13 8V0ZM0 11H2V18H9V11H11V19C11 19.2652 10.8946 19.5196 10.7071 19.7071C10.5196 19.8946 10.2652 20 10 20H1C0.734784 20 0.48043 19.8946 0.292893 19.7071C0.105357 19.5196 0 19.2652 0 19V11ZM13 11H15V18H22V11H24V19C24 19.2652 23.8946 19.5196 23.7071 19.7071C23.5196 19.8946 23.2652 20 23 20H14C13.7348 20 13.4804 19.8946 13.2929 19.7071C13.1054 19.5196 13 19.2652 13 19V11Z" fill="#036FC7"/>
</svg>
